<svg xmlns="http://www.w3.org/2000/svg" xmlns:xlink="http://www.w3.org/1999/xlink" width="50" zoomAndPan="magnify" viewBox="0 0 37.5 37.499999" height="50" preserveAspectRatio="xMidYMid meet" version="1.0"><path fill="#ffffff" d="M 25.875 22.65625 C 26.199219 22.839844 26.617188 22.730469 26.804688 22.402344 C 26.992188 22.074219 26.878906 21.660156 26.554688 21.472656 L 20.628906 18.050781 L 20.628906 10.527344 C 20.628906 10.148438 20.320312 9.84375 19.945312 9.84375 C 19.566406 9.84375 19.261719 10.148438 19.261719 10.527344 L 19.261719 18.835938 L 25.875 22.65625 " fill-opacity="1" fill-rule="nonzero"/><path fill="#ffffff" d="M 12.359375 18.535156 L 7.777344 18.535156 C 7.777344 11.769531 13.261719 6.28125 20.027344 6.28125 C 26.796875 6.28125 32.28125 11.769531 32.28125 18.535156 C 32.28125 25.300781 26.796875 30.789062 20.027344 30.789062 C 18.675781 30.789062 17.328125 30.5625 16.042969 30.121094 C 15.3125 29.871094 14.511719 30.257812 14.257812 30.996094 C 14.007812 31.726562 14.398438 32.527344 15.132812 32.78125 C 23 35.484375 31.570312 31.300781 34.273438 23.433594 C 36.976562 15.566406 32.796875 7 24.929688 4.292969 C 17.0625 1.585938 8.492188 5.773438 5.789062 13.636719 C 5.246094 15.214844 4.96875 16.867188 4.96875 18.535156 L 0.386719 18.535156 C 0.171875 18.535156 0 18.707031 0 18.921875 C 0 19.019531 0.0390625 19.113281 0.101562 19.183594 L 6.089844 25.644531 C 6.234375 25.800781 6.480469 25.808594 6.636719 25.664062 C 6.640625 25.65625 6.648438 25.652344 6.65625 25.644531 L 12.640625 19.183594 C 12.789062 19.027344 12.78125 18.78125 12.625 18.636719 C 12.550781 18.574219 12.457031 18.535156 12.359375 18.535156 " fill-opacity="1" fill-rule="nonzero"/></svg>