<svg xmlns="http://www.w3.org/2000/svg" xmlns:xlink="http://www.w3.org/1999/xlink" width="50" zoomAndPan="magnify" viewBox="0 0 37.5 37.499999" height="50" preserveAspectRatio="xMidYMid meet" version="1.0"><defs><clipPath id="6756aff1c8"><path d="M 3.699219 3.699219 L 33.304688 3.699219 L 33.304688 33.304688 L 3.699219 33.304688 Z M 3.699219 3.699219 " clip-rule="nonzero"/></clipPath></defs><path fill="#ffffff" d="M 32.902344 17.5625 L 18.503906 4.121094 L 4.105469 17.5625 L 4.105469 32.921875 L 14.664062 32.921875 L 14.664062 23.324219 L 22.34375 23.324219 L 22.34375 32.921875 L 32.902344 32.921875 Z M 32.902344 17.5625 " fill-opacity="1" fill-rule="evenodd"/><g clip-path="url(#6756aff1c8)"><path fill="#ffffff" d="M 33.285156 17.5625 C 33.285156 17.457031 33.242188 17.355469 33.164062 17.28125 L 18.765625 3.84375 C 18.617188 3.703125 18.390625 3.703125 18.242188 3.84375 L 3.84375 17.28125 C 3.765625 17.355469 3.71875 17.457031 3.71875 17.5625 L 3.71875 32.921875 C 3.71875 33.132812 3.890625 33.304688 4.105469 33.304688 L 14.664062 33.304688 C 14.875 33.304688 15.046875 33.132812 15.046875 32.921875 L 15.046875 23.707031 C 15.046875 23.707031 21.960938 23.707031 21.960938 23.707031 C 21.960938 23.707031 21.960938 32.921875 21.960938 32.921875 C 21.960938 33.132812 22.132812 33.304688 22.34375 33.304688 L 32.902344 33.304688 C 33.113281 33.304688 33.285156 33.132812 33.285156 32.921875 Z M 32.519531 17.730469 L 32.519531 32.539062 C 32.519531 32.539062 22.726562 32.539062 22.726562 32.539062 C 22.726562 32.539062 22.726562 23.324219 22.726562 23.324219 C 22.726562 23.109375 22.554688 22.9375 22.34375 22.9375 L 14.664062 22.9375 C 14.453125 22.9375 14.28125 23.109375 14.28125 23.324219 L 14.28125 32.539062 C 14.28125 32.539062 4.488281 32.539062 4.488281 32.539062 C 4.488281 32.539062 4.488281 17.730469 4.488281 17.730469 C 5.765625 16.539062 16.667969 6.363281 18.503906 4.648438 Z M 32.519531 17.730469 " fill-opacity="1" fill-rule="evenodd"/></g></svg>