<svg xmlns="http://www.w3.org/2000/svg" xmlns:xlink="http://www.w3.org/1999/xlink" width="50" zoomAndPan="magnify" viewBox="0 0 37.5 37.499999" height="50" preserveAspectRatio="xMidYMid meet" version="1.0"><defs><clipPath id="cdb8df7a52"><path d="M 2.601562 3.277344 L 34.425781 3.277344 L 34.425781 33.621094 L 2.601562 33.621094 Z M 2.601562 3.277344 " clip-rule="nonzero"/></clipPath></defs><g clip-path="url(#cdb8df7a52)"><path fill="#ffffff" d="M 34.273438 21.472656 C 34.273438 20.679688 33.957031 19.941406 33.414062 19.394531 C 34.03125 18.71875 34.34375 17.8125 34.257812 16.875 C 34.105469 15.199219 32.59375 13.882812 30.816406 13.882812 L 22.667969 13.882812 C 23.066406 12.65625 23.714844 10.410156 23.714844 8.605469 C 23.714844 5.742188 21.28125 3.328125 19.757812 3.328125 C 18.386719 3.328125 17.40625 4.097656 17.363281 4.128906 C 17.207031 4.257812 17.117188 4.445312 17.117188 4.644531 L 17.117188 9.121094 L 13.316406 17.355469 L 13.15625 17.433594 L 13.15625 17.183594 C 13.15625 16.816406 12.863281 16.523438 12.5 16.523438 L 5.898438 16.523438 C 4.082031 16.523438 2.601562 18.003906 2.601562 19.820312 L 2.601562 30.378906 C 2.601562 32.195312 4.082031 33.675781 5.898438 33.675781 L 9.859375 33.675781 C 11.285156 33.675781 12.503906 32.765625 12.964844 31.496094 C 14.0625 32.0625 15.542969 32.359375 16.457031 32.359375 L 28.570312 32.359375 C 30.007812 32.359375 31.265625 31.390625 31.558594 30.054688 C 31.710938 29.367188 31.625 28.671875 31.324219 28.070312 C 32.296875 27.582031 32.953125 26.578125 32.953125 25.429688 C 32.953125 24.964844 32.84375 24.515625 32.640625 24.113281 C 33.617188 23.621094 34.273438 22.617188 34.273438 21.472656 Z M 9.859375 32.359375 L 5.898438 32.359375 C 4.808594 32.359375 3.921875 31.46875 3.921875 30.378906 L 3.921875 19.820312 C 3.921875 18.730469 4.808594 17.84375 5.898438 17.84375 L 5.898438 17.847656 L 11.835938 17.847656 L 11.835938 18.507812 C 11.835938 18.511719 11.839844 18.515625 11.839844 18.519531 L 11.839844 30.378906 C 11.839844 31.46875 10.949219 32.359375 9.859375 32.359375 Z M 31.488281 23.101562 C 31.234375 23.132812 31.019531 23.304688 30.9375 23.546875 C 30.855469 23.789062 30.921875 24.058594 31.109375 24.234375 C 31.445312 24.554688 31.632812 24.976562 31.632812 25.433594 C 31.632812 26.265625 31.003906 26.964844 30.167969 27.058594 C 29.914062 27.089844 29.699219 27.261719 29.617188 27.503906 C 29.539062 27.75 29.605469 28.015625 29.792969 28.191406 C 30.226562 28.601562 30.402344 29.179688 30.269531 29.769531 C 30.109375 30.503906 29.394531 31.039062 28.570312 31.039062 L 16.457031 31.039062 C 15.476562 31.039062 13.898438 30.613281 13.15625 30.0625 L 13.15625 18.914062 L 14.109375 18.4375 C 14.242188 18.371094 14.351562 18.261719 14.414062 18.125 L 18.371094 9.546875 C 18.410156 9.460938 18.433594 9.367188 18.433594 9.269531 L 18.433594 5.011719 C 18.707031 4.859375 19.183594 4.652344 19.753906 4.652344 C 20.476562 4.652344 22.390625 6.449219 22.390625 8.609375 C 22.390625 10.933594 21.128906 14.28125 21.117188 14.316406 C 21.039062 14.515625 21.066406 14.746094 21.1875 14.921875 C 21.3125 15.101562 21.515625 15.207031 21.734375 15.207031 L 30.8125 15.207031 C 31.914062 15.207031 32.847656 15.996094 32.941406 17 C 33.011719 17.753906 32.652344 18.46875 32.003906 18.867188 C 31.796875 18.992188 31.679688 19.21875 31.6875 19.453125 C 31.695312 19.691406 31.835938 19.90625 32.046875 20.015625 C 32.605469 20.300781 32.949219 20.859375 32.949219 21.476562 C 32.949219 22.304688 32.320312 23.007812 31.488281 23.101562 Z M 31.488281 23.101562 " fill-opacity="1" fill-rule="nonzero"/></g></svg>