<svg xmlns="http://www.w3.org/2000/svg" xmlns:xlink="http://www.w3.org/1999/xlink" width="50" zoomAndPan="magnify" viewBox="0 0 37.5 37.499999" height="50" preserveAspectRatio="xMidYMid meet" version="1.0"><defs><clipPath id="0d68436621"><path d="M 2.996094 2.996094 L 34 2.996094 L 34 34 L 2.996094 34 Z M 2.996094 2.996094 " clip-rule="nonzero"/></clipPath></defs><g clip-path="url(#0d68436621)"><path fill="#ffffff" d="M 18.496094 34 C 9.949219 34 2.996094 27.046875 2.996094 18.496094 C 2.996094 9.949219 9.949219 2.996094 18.496094 2.996094 C 27.046875 2.996094 34 9.949219 34 18.496094 C 34 27.046875 27.046875 34 18.496094 34 Z M 18.496094 4.472656 C 10.761719 4.472656 4.472656 10.765625 4.472656 18.496094 C 4.472656 26.230469 10.761719 32.523438 18.496094 32.523438 C 26.230469 32.523438 32.523438 26.230469 32.523438 18.496094 C 32.523438 10.765625 26.230469 4.472656 18.496094 4.472656 Z M 18.496094 4.472656 " fill-opacity="1" fill-rule="nonzero"/></g><path fill="#ffffff" d="M 23.578125 24.621094 L 17.757812 18.804688 L 17.757812 8.164062 L 19.234375 8.164062 L 19.234375 18.191406 L 24.621094 23.578125 Z M 23.578125 24.621094 " fill-opacity="1" fill-rule="nonzero"/></svg>