<svg xmlns="http://www.w3.org/2000/svg" xmlns:xlink="http://www.w3.org/1999/xlink" width="50" zoomAndPan="magnify" viewBox="0 0 37.5 37.499999" height="50" preserveAspectRatio="xMidYMid meet" version="1.0"><defs><clipPath id="deaa4d3347"><path d="M 35 3 L 36.117188 3 L 36.117188 34 L 35 34 Z M 35 3 " clip-rule="nonzero"/></clipPath><clipPath id="2a7816edd0"><path d="M 0.886719 3 L 2 3 L 2 34 L 0.886719 34 Z M 0.886719 3 " clip-rule="nonzero"/></clipPath><clipPath id="c8295243ab"><path d="M 3 0.886719 L 34 0.886719 L 34 2 L 3 2 Z M 3 0.886719 " clip-rule="nonzero"/></clipPath><clipPath id="fbbf03d074"><path d="M 3 35 L 34 35 L 34 36.117188 L 3 36.117188 Z M 3 35 " clip-rule="nonzero"/></clipPath><clipPath id="cbaa5f9a25"><path d="M 33 0.886719 L 36.117188 0.886719 L 36.117188 4 L 33 4 Z M 33 0.886719 " clip-rule="nonzero"/></clipPath><clipPath id="516e785f71"><path d="M 0.886719 0.886719 L 4 0.886719 L 4 4 L 0.886719 4 Z M 0.886719 0.886719 " clip-rule="nonzero"/></clipPath><clipPath id="b5ee25bc3b"><path d="M 33 33 L 36.117188 33 L 36.117188 36.117188 L 33 36.117188 Z M 33 33 " clip-rule="nonzero"/></clipPath><clipPath id="bffe239e7d"><path d="M 0.886719 33 L 4 33 L 4 36.117188 L 0.886719 36.117188 Z M 0.886719 33 " clip-rule="nonzero"/></clipPath><clipPath id="30d542d796"><path d="M 0 0 L 37.007812 0 L 37.007812 37.007812 L 0 37.007812 Z M 0 0 " clip-rule="nonzero"/></clipPath><clipPath id="ff92c62b6d"><path d="M 11.566406 6.253906 L 25.441406 6.253906 L 25.441406 20.132812 L 11.566406 20.132812 Z M 11.566406 6.253906 " clip-rule="nonzero"/></clipPath><clipPath id="11898e749a"><path d="M 18.503906 6.253906 C 14.671875 6.253906 11.566406 9.359375 11.566406 13.191406 C 11.566406 17.023438 14.671875 20.132812 18.503906 20.132812 C 22.335938 20.132812 25.441406 17.023438 25.441406 13.191406 C 25.441406 9.359375 22.335938 6.253906 18.503906 6.253906 Z M 18.503906 6.253906 " clip-rule="nonzero"/></clipPath><clipPath id="8932de0333"><path d="M 0.492188 19.042969 L 36.761719 19.042969 L 36.761719 36.804688 L 0.492188 36.804688 Z M 0.492188 19.042969 " clip-rule="nonzero"/></clipPath></defs><g clip-path="url(#deaa4d3347)"><path fill="#ffffff" d="M 35.902344 3.390625 L 37.007812 3.390625 L 37.007812 33.617188 L 35.902344 33.617188 Z M 35.902344 3.390625 " fill-opacity="1" fill-rule="nonzero"/></g><g clip-path="url(#2a7816edd0)"><path fill="#ffffff" d="M 0 3.390625 L 1.105469 3.390625 L 1.105469 33.617188 L 0 33.617188 Z M 0 3.390625 " fill-opacity="1" fill-rule="nonzero"/></g><g clip-path="url(#c8295243ab)"><path fill="#ffffff" d="M 3.390625 0 L 33.617188 0 L 33.617188 1.105469 L 3.390625 1.105469 Z M 3.390625 0 " fill-opacity="1" fill-rule="nonzero"/></g><g clip-path="url(#fbbf03d074)"><path fill="#ffffff" d="M 3.390625 35.902344 L 33.617188 35.902344 L 33.617188 37.007812 L 3.390625 37.007812 Z M 3.390625 35.902344 " fill-opacity="1" fill-rule="nonzero"/></g><g clip-path="url(#cbaa5f9a25)"><path fill="#ffffff" d="M 35.902344 1.105469 L 35.902344 3.390625 L 37.007812 3.390625 L 37.007812 0 L 33.617188 0 L 33.617188 1.105469 Z M 35.902344 1.105469 " fill-opacity="1" fill-rule="nonzero"/></g><g clip-path="url(#516e785f71)"><path fill="#ffffff" d="M 1.105469 1.105469 L 3.390625 1.105469 L 3.390625 0 L 0 0 L 0 3.390625 L 1.105469 3.390625 Z M 1.105469 1.105469 " fill-opacity="1" fill-rule="nonzero"/></g><g clip-path="url(#b5ee25bc3b)"><path fill="#ffffff" d="M 35.902344 35.902344 L 33.617188 35.902344 L 33.617188 37.007812 L 37.007812 37.007812 L 37.007812 33.617188 L 35.902344 33.617188 Z M 35.902344 35.902344 " fill-opacity="1" fill-rule="nonzero"/></g><g clip-path="url(#bffe239e7d)"><path fill="#ffffff" d="M 1.105469 35.902344 L 1.105469 33.617188 L 0 33.617188 L 0 37.007812 L 3.390625 37.007812 L 3.390625 35.902344 Z M 1.105469 35.902344 " fill-opacity="1" fill-rule="nonzero"/></g><g clip-path="url(#30d542d796)"><path stroke-linecap="butt" transform="matrix(0.740132, 0, 0, 0.740132, 0.0000005, 0)" fill="none" stroke-linejoin="miter" d="M -0.000000675556 0 L -0.000000675556 50.00167 L 50.001669 50.00167 L 50.001669 0 L -0.000000675556 0 " stroke="#ffffff" stroke-width="2" stroke-opacity="1" stroke-miterlimit="4"/></g><g clip-path="url(#ff92c62b6d)"><g clip-path="url(#11898e749a)"><path stroke-linecap="butt" transform="matrix(0.740132, 0, 0, 0.740132, 11.564556, 6.254111)" fill="none" stroke-linejoin="miter" d="M 9.375834 -0.0002772 C 4.198334 -0.0002772 0.00250039 4.195556 0.00250039 9.373057 C 0.00250039 14.550557 4.198334 18.751669 9.375834 18.751669 C 14.553335 18.751669 18.749168 14.550557 18.749168 9.373057 C 18.749168 4.195556 14.553335 -0.0002772 9.375834 -0.0002772 Z M 9.375834 -0.0002772 " stroke="#ffffff" stroke-width="4" stroke-opacity="1" stroke-miterlimit="4"/></g></g><g clip-path="url(#8932de0333)"><path fill="#ffffff" d="M 18.492188 19.039062 C 23.457031 19.039062 27.953125 21.050781 31.191406 24.304688 C 34.445312 27.558594 36.457031 32.054688 36.457031 37.003906 L 33.988281 37.003906 C 33.988281 32.734375 32.257812 28.851562 29.460938 26.054688 C 26.644531 23.253906 22.777344 21.503906 18.492188 21.503906 C 14.222656 21.503906 10.339844 23.253906 7.539062 26.054688 C 4.742188 28.851562 3.007812 32.734375 3.007812 37.003906 L 0.542969 37.003906 C 0.542969 32.054688 2.535156 27.558594 5.789062 24.304688 C 9.042969 21.050781 13.539062 19.039062 18.492188 19.039062 Z M 18.492188 19.039062 " fill-opacity="1" fill-rule="nonzero"/></g></svg>