<svg xmlns="http://www.w3.org/2000/svg" xmlns:xlink="http://www.w3.org/1999/xlink" width="150" zoomAndPan="magnify" viewBox="0 0 112.5 30.000001" height="40" preserveAspectRatio="xMidYMid meet" version="1.0"><path fill="#ff0000" d="M 30.980469 7.859375 C 30.820312 7.265625 30.519531 6.75 30.085938 6.3125 C 29.648438 5.875 29.132812 5.578125 28.539062 5.417969 C 26.386719 4.839844 17.757812 4.839844 17.757812 4.839844 C 17.757812 4.839844 9.125 4.839844 6.972656 5.417969 C 6.378906 5.578125 5.863281 5.875 5.425781 6.3125 C 4.992188 6.75 4.695312 7.265625 4.535156 7.859375 C 3.957031 10.015625 3.957031 14.515625 3.957031 14.515625 C 3.957031 14.515625 3.957031 19.015625 4.535156 21.171875 C 4.695312 21.765625 4.992188 22.285156 5.425781 22.71875 C 5.863281 23.15625 6.378906 23.453125 6.972656 23.613281 C 9.125 24.191406 17.757812 24.191406 17.757812 24.191406 C 17.757812 24.191406 26.386719 24.191406 28.539062 23.613281 C 29.132812 23.453125 29.648438 23.15625 30.085938 22.71875 C 30.519531 22.285156 30.820312 21.765625 30.980469 21.171875 C 31.554688 19.015625 31.554688 14.515625 31.554688 14.515625 C 31.554688 14.515625 31.554688 10.015625 30.980469 7.859375 " fill-opacity="1" fill-rule="nonzero"/><path fill="#ffffff" d="M 14.996094 18.664062 L 22.167969 14.515625 L 14.996094 10.367188 Z M 47.074219 20.546875 C 47.226562 20.152344 47.300781 19.507812 47.300781 18.609375 L 47.300781 14.835938 C 47.300781 13.964844 47.226562 13.328125 47.074219 12.925781 C 46.925781 12.523438 46.65625 12.324219 46.277344 12.324219 C 45.90625 12.324219 45.648438 12.523438 45.496094 12.925781 C 45.34375 13.328125 45.269531 13.964844 45.269531 14.835938 L 45.269531 18.609375 C 45.269531 19.507812 45.34375 20.152344 45.488281 20.546875 C 45.632812 20.945312 45.894531 21.140625 46.277344 21.140625 C 46.65625 21.140625 46.925781 20.945312 47.074219 20.546875 Z M 44.015625 22.445312 C 43.46875 22.078125 43.082031 21.503906 42.851562 20.726562 C 42.621094 19.949219 42.507812 18.914062 42.507812 17.621094 L 42.507812 15.863281 C 42.507812 14.558594 42.636719 13.507812 42.902344 12.71875 C 43.164062 11.925781 43.574219 11.351562 44.136719 10.988281 C 44.695312 10.625 45.425781 10.445312 46.335938 10.445312 C 47.230469 10.445312 47.945312 10.628906 48.488281 10.996094 C 49.027344 11.367188 49.421875 11.945312 49.671875 12.726562 C 49.921875 13.511719 50.046875 14.558594 50.046875 15.863281 L 50.046875 17.621094 C 50.046875 18.914062 49.925781 19.953125 49.679688 20.734375 C 49.4375 21.519531 49.042969 22.09375 48.496094 22.457031 C 47.949219 22.820312 47.210938 23 46.277344 23 C 45.316406 23 44.5625 22.816406 44.015625 22.445312 M 86.28125 12.550781 C 86.144531 12.722656 86.050781 13 86.003906 13.390625 C 85.957031 13.777344 85.9375 14.367188 85.9375 15.160156 L 85.9375 16.027344 L 87.929688 16.027344 L 87.929688 15.160156 C 87.929688 14.382812 87.902344 13.792969 87.851562 13.390625 C 87.796875 12.988281 87.703125 12.703125 87.5625 12.539062 C 87.425781 12.375 87.210938 12.292969 86.921875 12.292969 C 86.632812 12.292969 86.417969 12.378906 86.28125 12.550781 Z M 85.9375 17.652344 L 85.9375 18.261719 C 85.9375 19.042969 85.957031 19.625 86.003906 20.011719 C 86.050781 20.402344 86.144531 20.6875 86.292969 20.863281 C 86.4375 21.042969 86.660156 21.128906 86.960938 21.128906 C 87.371094 21.128906 87.648438 20.972656 87.800781 20.65625 C 87.953125 20.339844 88.035156 19.8125 88.046875 19.074219 L 90.394531 19.210938 C 90.410156 19.320312 90.414062 19.464844 90.414062 19.648438 C 90.414062 20.769531 90.109375 21.605469 89.5 22.160156 C 88.886719 22.710938 88.019531 22.988281 86.902344 22.988281 C 85.5625 22.988281 84.621094 22.566406 84.082031 21.722656 C 83.539062 20.878906 83.269531 19.574219 83.269531 17.808594 L 83.269531 15.691406 C 83.269531 13.875 83.550781 12.546875 84.109375 11.707031 C 84.667969 10.871094 85.625 10.453125 86.980469 10.453125 C 87.914062 10.453125 88.632812 10.625 89.132812 10.96875 C 89.632812 11.3125 89.984375 11.84375 90.1875 12.570312 C 90.394531 13.292969 90.496094 14.296875 90.496094 15.574219 L 90.496094 17.652344 L 85.9375 17.652344 M 37.382812 17.421875 L 34.285156 6.210938 L 36.988281 6.210938 L 38.074219 11.292969 C 38.351562 12.546875 38.554688 13.613281 38.6875 14.496094 L 38.765625 14.496094 C 38.859375 13.863281 39.0625 12.804688 39.378906 11.3125 L 40.503906 6.210938 L 43.207031 6.210938 L 40.070312 17.421875 L 40.070312 22.800781 L 37.382812 22.800781 L 37.382812 17.421875 M 58.839844 10.683594 L 58.839844 22.800781 L 56.707031 22.800781 L 56.472656 21.320312 L 56.414062 21.320312 C 55.832031 22.441406 54.964844 23 53.808594 23 C 53.003906 23 52.414062 22.734375 52.03125 22.207031 C 51.648438 21.683594 51.457031 20.859375 51.457031 19.738281 L 51.457031 10.683594 L 54.183594 10.683594 L 54.183594 19.578125 C 54.183594 20.121094 54.242188 20.503906 54.359375 20.734375 C 54.476562 20.96875 54.675781 21.082031 54.953125 21.082031 C 55.1875 21.082031 55.414062 21.007812 55.632812 20.863281 C 55.851562 20.71875 56.011719 20.535156 56.117188 20.3125 L 56.117188 10.679688 L 58.839844 10.679688 M 72.8125 10.683594 L 72.8125 22.800781 L 70.679688 22.800781 L 70.441406 21.320312 L 70.382812 21.320312 C 69.804688 22.441406 68.933594 23 67.777344 23 C 66.976562 23 66.382812 22.734375 66 22.207031 C 65.621094 21.683594 65.429688 20.859375 65.429688 19.738281 L 65.429688 10.683594 L 68.152344 10.683594 L 68.152344 19.578125 C 68.152344 20.121094 68.210938 20.503906 68.332031 20.734375 C 68.449219 20.96875 68.644531 21.082031 68.921875 21.082031 C 69.160156 21.082031 69.386719 21.007812 69.601562 20.863281 C 69.820312 20.71875 69.980469 20.535156 70.085938 20.3125 L 70.085938 10.679688 L 72.8125 10.679688 " fill-opacity="1" fill-rule="nonzero"/><path fill="#ffffff" d="M 66.242188 8.40625 L 63.535156 8.40625 L 63.535156 22.800781 L 60.871094 22.800781 L 60.871094 8.40625 L 58.167969 8.40625 L 58.167969 6.214844 L 66.242188 6.214844 L 66.242188 8.40625 M 79.328125 17.5625 C 79.328125 18.445312 79.292969 19.136719 79.21875 19.640625 C 79.148438 20.140625 79.027344 20.496094 78.855469 20.707031 C 78.683594 20.917969 78.453125 21.023438 78.164062 21.023438 C 77.941406 21.023438 77.734375 20.972656 77.542969 20.863281 C 77.351562 20.757812 77.195312 20.601562 77.078125 20.390625 L 77.078125 13.507812 C 77.171875 13.179688 77.328125 12.910156 77.550781 12.699219 C 77.777344 12.488281 78.019531 12.382812 78.28125 12.382812 C 78.558594 12.382812 78.773438 12.492188 78.921875 12.707031 C 79.074219 12.925781 79.179688 13.292969 79.238281 13.804688 C 79.296875 14.320312 79.328125 15.050781 79.328125 16 Z M 81.824219 12.617188 C 81.660156 11.855469 81.394531 11.300781 81.027344 10.957031 C 80.65625 10.617188 80.152344 10.445312 79.507812 10.445312 C 79.003906 10.445312 78.539062 10.585938 78.105469 10.871094 C 77.667969 11.152344 77.332031 11.523438 77.097656 11.988281 L 77.078125 11.988281 L 77.078125 5.601562 L 74.453125 5.601562 L 74.453125 22.800781 L 76.703125 22.800781 L 76.980469 21.65625 L 77.039062 21.65625 C 77.25 22.0625 77.566406 22.386719 77.984375 22.625 C 78.40625 22.859375 78.875 22.980469 79.386719 22.980469 C 80.308594 22.980469 80.984375 22.554688 81.421875 21.703125 C 81.855469 20.855469 82.070312 19.527344 82.070312 17.71875 L 82.070312 15.800781 C 82.070312 14.445312 81.988281 13.382812 81.824219 12.617188 " fill-opacity="1" fill-rule="nonzero"/></svg>