<svg xmlns="http://www.w3.org/2000/svg" xmlns:xlink="http://www.w3.org/1999/xlink" width="50" zoomAndPan="magnify" viewBox="0 0 37.5 37.499999" height="50" preserveAspectRatio="xMidYMid meet" version="1.0"><defs><clipPath id="edd0d160b2"><path d="M 14 30 L 23 30 L 23 33.304688 L 14 33.304688 Z M 14 30 " clip-rule="nonzero"/></clipPath><clipPath id="813d93ea7b"><path d="M 5.074219 3.699219 L 31.71875 3.699219 L 31.71875 30 L 5.074219 30 Z M 5.074219 3.699219 " clip-rule="nonzero"/></clipPath><clipPath id="6fa307278f"><path d="M 14.648438 28.859375 L 22.792969 28.859375 L 22.792969 33.148438 L 14.648438 33.148438 Z M 14.648438 28.859375 " clip-rule="nonzero"/></clipPath><clipPath id="452cb14a11"><path d="M 16.394531 4.800781 L 20.835938 4.800781 L 20.835938 6.953125 L 16.394531 6.953125 Z M 16.394531 4.800781 " clip-rule="nonzero"/></clipPath></defs><g clip-path="url(#edd0d160b2)"><path fill="#ffffff" d="M 18.5 31.96875 C 17.433594 31.96875 16.46875 31.335938 16.039062 30.355469 L 14.8125 30.894531 C 15.457031 32.355469 16.902344 33.304688 18.5 33.304688 C 20.121094 33.304688 21.574219 32.34375 22.203125 30.851562 L 20.972656 30.328125 C 20.546875 31.324219 19.578125 31.96875 18.5 31.96875 Z M 18.5 31.96875 " fill-opacity="1" fill-rule="nonzero"/></g><g clip-path="url(#813d93ea7b)"><path fill="#ffffff" d="M 31.664062 27.429688 L 28.125 24.480469 C 27.972656 24.351562 27.882812 24.167969 27.882812 23.96875 L 27.882812 15.875 C 27.882812 13.285156 26.851562 10.875 24.976562 9.085938 C 23.875 8.035156 22.5625 7.292969 21.148438 6.878906 C 21.175781 6.671875 21.191406 6.46875 21.171875 6.25 C 21.070312 5.105469 20.226562 4.132812 19.117188 3.882812 C 18.304688 3.699219 17.46875 3.890625 16.824219 4.402344 C 16.1875 4.914062 15.820312 5.675781 15.820312 6.496094 C 15.820312 6.632812 15.84375 6.757812 15.863281 6.886719 C 11.945312 8.054688 9.113281 11.746094 9.113281 16.125 L 9.113281 23.960938 C 9.113281 24.164062 9.027344 24.351562 8.875 24.476562 L 5.332031 27.425781 C 5.179688 27.554688 5.09375 27.742188 5.09375 27.9375 L 5.09375 28.609375 C 5.09375 28.980469 5.394531 29.28125 5.765625 29.28125 L 31.234375 29.28125 C 31.605469 29.28125 31.90625 28.980469 31.90625 28.609375 L 31.90625 27.9375 C 31.902344 27.742188 31.8125 27.554688 31.664062 27.429688 Z M 17.15625 6.496094 C 17.15625 6.082031 17.335938 5.707031 17.65625 5.445312 C 17.980469 5.1875 18.386719 5.09375 18.816406 5.1875 C 19.355469 5.3125 19.78125 5.800781 19.832031 6.359375 C 19.839844 6.4375 19.828125 6.515625 19.820312 6.589844 C 19.238281 6.507812 18.648438 6.480469 18.039062 6.503906 C 17.746094 6.515625 17.449219 6.542969 17.160156 6.589844 C 17.167969 6.554688 17.15625 6.527344 17.15625 6.496094 Z M 6.808594 27.945312 L 9.726562 25.507812 C 10.1875 25.125 10.453125 24.5625 10.453125 23.960938 L 10.453125 16.125 C 10.453125 11.679688 13.816406 8.042969 18.109375 7.839844 C 20.339844 7.734375 22.445312 8.527344 24.050781 10.054688 C 25.65625 11.585938 26.539062 13.652344 26.539062 15.875 L 26.539062 23.960938 C 26.539062 24.558594 26.804688 25.125 27.265625 25.507812 L 30.183594 27.945312 Z M 6.808594 27.945312 " fill-opacity="1" fill-rule="nonzero"/></g><g clip-path="url(#6fa307278f)"><path fill="#ffffff" d="M 22.8125 29.066406 C 22.8125 31.390625 20.925781 33.273438 18.601562 33.273438 C 16.277344 33.273438 14.390625 31.390625 14.390625 29.066406 C 14.390625 28.902344 14.523438 28.769531 14.6875 28.769531 L 22.515625 28.769531 C 22.679688 28.769531 22.8125 28.902344 22.8125 29.066406 Z M 22.8125 29.066406 " fill-opacity="1" fill-rule="evenodd"/></g><g clip-path="url(#452cb14a11)"><path fill="#ffffff" d="M 16.386719 6.847656 C 16.386719 5.683594 17.328125 4.742188 18.488281 4.742188 C 19.652344 4.742188 20.59375 5.683594 20.59375 6.847656 C 20.59375 6.925781 20.527344 6.992188 20.449219 6.992188 L 16.53125 6.992188 C 16.449219 6.992188 16.386719 6.925781 16.386719 6.847656 Z M 16.386719 6.847656 " fill-opacity="1" fill-rule="evenodd"/></g></svg>