<svg xmlns="http://www.w3.org/2000/svg" xmlns:xlink="http://www.w3.org/1999/xlink" width="50" zoomAndPan="magnify" viewBox="0 0 37.5 37.499999" height="50" preserveAspectRatio="xMidYMid meet" version="1.0"><path fill="#f40407" d="M 21.585938 5.085938 C 24.21875 3.703125 27.46875 4.703125 28.855469 7.332031 C 30.246094 9.957031 29.226562 13.199219 26.601562 14.578125 L 24.441406 15.71875 C 25.402344 15.753906 26.289062 16.023438 27.105469 16.535156 C 27.921875 17.046875 28.558594 17.726562 29.011719 18.578125 C 29.175781 18.890625 29.308594 19.21875 29.40625 19.554688 C 29.507812 19.894531 29.570312 20.238281 29.605469 20.589844 C 29.636719 20.941406 29.632812 21.292969 29.597656 21.644531 C 29.558594 21.996094 29.488281 22.339844 29.382812 22.675781 C 29.277344 23.015625 29.140625 23.335938 28.972656 23.648438 C 28.804688 23.957031 28.609375 24.246094 28.382812 24.515625 C 28.15625 24.789062 27.90625 25.035156 27.632812 25.253906 C 27.359375 25.472656 27.066406 25.664062 26.757812 25.828125 L 15.230469 31.9375 C 12.597656 33.308594 9.351562 32.308594 7.960938 29.679688 C 6.570312 27.054688 7.59375 23.824219 10.214844 22.441406 L 12.375 21.292969 C 11.417969 21.257812 10.527344 20.988281 9.710938 20.476562 C 8.898438 19.96875 8.261719 19.285156 7.808594 18.433594 C 7.644531 18.121094 7.511719 17.796875 7.410156 17.457031 C 7.3125 17.117188 7.246094 16.773438 7.214844 16.421875 C 7.183594 16.070312 7.183594 15.71875 7.222656 15.367188 C 7.257812 15.015625 7.332031 14.671875 7.433594 14.335938 C 7.539062 13.996094 7.675781 13.675781 7.84375 13.363281 C 8.011719 13.054688 8.210938 12.765625 8.433594 12.496094 C 8.660156 12.222656 8.910156 11.980469 9.183594 11.757812 C 9.457031 11.539062 9.75 11.347656 10.0625 11.183594 Z M 15.367188 14.183594 L 22.34375 18.527344 L 15.367188 22.847656 Z M 15.367188 14.183594 " fill-opacity="1" fill-rule="evenodd"/><path fill="#ffffff" d="M 22.34375 18.527344 L 15.367188 14.183594 L 15.367188 22.847656 Z M 22.34375 18.527344 " fill-opacity="1" fill-rule="evenodd"/></svg>