<svg xmlns="http://www.w3.org/2000/svg" xmlns:xlink="http://www.w3.org/1999/xlink" width="50" zoomAndPan="magnify" viewBox="0 0 37.5 37.499999" height="50" preserveAspectRatio="xMidYMid meet" version="1.0"><defs><clipPath id="dff3d65a43"><path d="M 4.589844 15.035156 L 32.417969 15.035156 L 32.417969 30.0625 L 4.589844 30.0625 Z M 4.589844 15.035156 " clip-rule="nonzero"/></clipPath><clipPath id="833833002d"><path d="M 3.699219 14.148438 L 33.304688 14.148438 L 33.304688 30.941406 L 3.699219 30.941406 Z M 3.699219 14.148438 " clip-rule="nonzero"/></clipPath><clipPath id="41ebd214b3"><path d="M 15.222656 18.800781 L 21.78125 18.800781 L 21.78125 26.308594 L 15.222656 26.308594 Z M 15.222656 18.800781 " clip-rule="nonzero"/></clipPath><clipPath id="2f1ae14fdd"><path d="M 21.78125 22.550781 L 15.222656 26.296875 L 15.222656 18.800781 Z M 21.78125 22.550781 " clip-rule="nonzero"/></clipPath></defs><g clip-path="url(#dff3d65a43)"><path fill="#f1f2f2" d="M 33.152344 31.1875 L 3.851562 31.1875 C 3.769531 31.1875 3.699219 31.117188 3.699219 31.03125 L 3.699219 14.324219 C 3.699219 14.238281 3.769531 14.167969 3.851562 14.167969 L 33.152344 14.167969 C 33.238281 14.167969 33.304688 14.238281 33.304688 14.324219 L 33.304688 31.03125 C 33.304688 31.117188 33.238281 31.1875 33.152344 31.1875 Z M 4.007812 30.878906 L 33 30.878906 L 33 14.480469 L 4.007812 14.480469 Z M 4.007812 30.878906 " fill-opacity="1" fill-rule="nonzero"/></g><g clip-path="url(#833833002d)"><path stroke-linecap="butt" transform="matrix(0.740132, 0, 0, 0.740132, 3.700658, 14.148847)" fill="none" stroke-linejoin="miter" d="M -0.00194478 -0.000553823 L -0.00194478 22.688614 L 39.998336 22.688614 L 39.998336 -0.000553823 L -0.00194478 -0.000553823 " stroke="#ffffff" stroke-width="4" stroke-opacity="1" stroke-miterlimit="4"/></g><path stroke-linecap="butt" transform="matrix(0.740132, 0, 0, 0.740132, 6.364313, 9.486019)" fill="none" stroke-linejoin="miter" d="M -0.00139353 1.501946 L 32.799998 1.501946 " stroke="#ffffff" stroke-width="3" stroke-opacity="1" stroke-miterlimit="4"/><path stroke-linecap="butt" transform="matrix(0.740132, 0, 0, 0.740132, 11.09958, 5.933387)" fill="none" stroke-linejoin="miter" d="M -0.00259938 1.499168 L 20.005458 1.499168 " stroke="#ffffff" stroke-width="3" stroke-opacity="1" stroke-miterlimit="4"/><g clip-path="url(#41ebd214b3)"><g clip-path="url(#2f1ae14fdd)"><path fill="#ffffff" d="M 21.78125 18.800781 L 21.78125 26.308594 L 15.222656 26.308594 L 15.222656 18.800781 Z M 21.78125 18.800781 " fill-opacity="1" fill-rule="nonzero"/></g></g></svg>